<svg xmlns="http://www.w3.org/2000/svg" viewBox="0 0 1200 420" preserveAspectRatio="xMidYMid slice"><defs><linearGradient id="bg" x1="0" y1="0" x2="1" y2="1"><stop stop-color="#fffdf9"/><stop offset=".55" stop-color="#fbfaf3"/><stop offset="1" stop-color="#e8efe2"/></linearGradient><radialGradient id="wash"><stop stop-color="#dbe7d4" stop-opacity=".65"/><stop offset="1" stop-color="#dbe7d4" stop-opacity="0"/></radialGradient></defs><rect width="1200" height="420" rx="28" fill="url(#bg)"/><ellipse cx="1040" cy="300" rx="300" ry="190" fill="url(#wash)"/><g fill="none" stroke="#d5a344" stroke-width="2" opacity=".75"><path d="M300 390 C500 280 540 410 690 300 S900 210 1080 110"/><path d="M650 330 C720 260 700 205 770 155"/></g><g fill="#789578" opacity=".8"><path d="M820 390 C830 315 850 250 900 180 C865 270 870 330 850 400Z"/><path d="M855 290 C810 255 790 225 785 190 C825 205 850 235 855 290Z"/><path d="M875 250 C920 215 945 180 948 145 C910 165 882 195 875 250Z"/><path d="M850 335 C805 315 775 285 765 250 C810 260 842 285 850 335Z"/><path d="M900 205 C940 175 970 135 980 100 C940 120 910 155 900 205Z"/></g><g fill="#c8d6bd" opacity=".7"><circle cx="930" cy="330" r="90"/><circle cx="1080" cy="270" r="130"/></g><g transform="translate(1010 55) rotate(25)"><path d="M0 0 L135 0 L155 20 L20 20Z" fill="#8ca58e"/><path d="M20 0 L145 0 L158 10 L20 10Z" fill="#d9e0d4"/><path d="M135 0 L190 10 L145 20Z" fill="#d0a047"/><path d="M190 10 L150 15 L170 24Z" fill="#345b4b"/></g><g fill="#d5a344"><circle cx="760" cy="95" r="3"/><circle cx="1040" cy="75" r="3"/><circle cx="700" cy="210" r="2"/></g></svg>