<svg xmlns="http://www.w3.org/2000/svg" viewBox="0 0 1200 900" role="img" aria-labelledby="t d"><title id="t">Próximo taller · Próximamente</title><desc id="d">Portada temporal terracota, blush y crema para Academia Yamilet.</desc><defs><linearGradient id="bg" x1="0" y1="0" x2="1" y2="1"><stop stop-color="#fff8ef"/><stop offset="1" stop-color="#f4d8ca"/></linearGradient><radialGradient id="sun" cx="78%" cy="16%" r="48%"><stop stop-color="#f6c6ad" stop-opacity=".75"/><stop offset="1" stop-color="#f6c6ad" stop-opacity="0"/></radialGradient></defs><rect width="1200" height="900" fill="url(#bg)"/><rect width="1200" height="900" fill="url(#sun)"/><g fill="none" stroke="#c86f50" stroke-width="4" opacity=".42"><path d="M0 715C155 595 285 625 405 790M925 0c-10 148 74 245 275 310"/><path d="M76 625c56-160 108-218 185-291m-120 315c63-98 136-149 231-176M1010 205c-92 44-150 102-187 181"/></g><g fill="#d88b70" opacity=".23"><circle cx="1010" cy="215" r="128"/><circle cx="1060" cy="165" r="58"/></g><g font-family="Georgia,serif" text-anchor="middle"><text x="600" y="330" fill="#a84e35" font-size="86" letter-spacing="6">PRÓXIMO</text><text x="600" y="445" fill="#bc684b" font-size="112" letter-spacing="6">TALLER</text><text x="600" y="530" fill="#8c5949" font-size="30" font-style="italic">Nueva experiencia formativa</text></g><g font-family="Arial,sans-serif"><text x="78" y="88" fill="#b75d42" font-size="24" letter-spacing="4">ACADEMIA</text><text x="78" y="126" fill="#8f4d3b" font-size="36" font-family="Georgia,serif">YAMILET</text></g><rect x="300" y="625" width="600" height="120" rx="38" fill="#b86449" stroke="#d5a052" stroke-width="3"/><text x="600" y="701" text-anchor="middle" fill="#fff6ec" font-size="44" font-family="Georgia,serif" letter-spacing="5">PRÓXIMAMENTE</text></svg>